<svg width="42.480469" height="30.820312" viewBox="0 0 42.4805 30.8203" fill="none" xmlns="http://www.w3.org/2000/svg" xmlns:xlink="http://www.w3.org/1999/xlink">
	<desc>
			Created with Pixso.
	</desc>
	<defs/>
	<path id="“" d="M2.41 11.19Q0 15.63 0 21.38Q0 24.58 1.42 26.9Q1.82 27.56 2.34 28.15Q3.32 29.27 4.55 29.92Q6.26 30.82 8.43 30.82Q11.01 30.82 12.83 29.64Q13.16 29.43 13.47 29.17Q13.94 28.79 14.29 28.33Q15.46 26.79 15.46 24.37Q15.46 22.99 14.95 21.84Q14.04 19.82 11.54 18.51Q9.31 17.34 8.43 16.49Q8 16.07 7.78 15.57Q7.55 15.04 7.55 14.41Q7.55 13.2 7.9 12.11Q9.45 7.24 17.87 4.57L17.87 0Q9.14 2.63 4.57 8.05Q3.32 9.53 2.41 11.19ZM27.02 11.19Q24.6 15.63 24.6 21.38Q24.6 24.58 26.03 26.9Q26.43 27.56 26.95 28.15Q27.93 29.27 29.16 29.92Q30.87 30.82 33.04 30.82Q35.62 30.82 37.44 29.64Q37.77 29.43 38.08 29.17Q38.55 28.79 38.9 28.33Q40.07 26.79 40.07 24.37Q40.07 22.99 39.56 21.84Q38.65 19.82 36.15 18.51Q33.92 17.34 33.04 16.49Q32.61 16.07 32.39 15.57Q32.16 15.04 32.16 14.41Q32.16 13.2 32.51 12.11Q34.06 7.24 42.48 4.57L42.48 0Q33.75 2.63 29.17 8.05Q27.93 9.53 27.02 11.19Z" fill="#6610F2" fill-opacity="1.000000" fill-rule="evenodd"/>
</svg>
