<svg width="23.222168" height="23.222168" viewBox="0 0 23.2222 23.2222" fill="none" xmlns="http://www.w3.org/2000/svg" xmlns:xlink="http://www.w3.org/1999/xlink">
	<desc>
			Created with Pixso.
	</desc>
	<defs>
		<clipPath id="clip26_26">
			<rect id="chat-dots-fill 1" rx="-0.611111" width="22.000000" height="22.000000" transform="translate(0.611111 0.611111)" fill="white" fill-opacity="0"/>
		</clipPath>
	</defs>
	<g opacity="0.300000">
		<rect id="chat-dots-fill 1" rx="-0.611111" width="22.000000" height="22.000000" transform="translate(0.611111 0.611111)" fill="#FFFFFF" fill-opacity="0"/>
		<g clip-path="url(#clip26_26)">
			<path id="Vector" d="M23.22 11.61C23.22 17.22 18.02 21.77 11.61 21.77C10.46 21.77 9.31 21.62 8.2 21.32C7.35 21.75 5.41 22.58 2.13 23.11C1.84 23.16 1.62 22.86 1.74 22.59C2.25 21.37 2.71 19.76 2.85 18.28C1.08 16.5 0 14.16 0 11.61C0 6 5.19 1.45 11.61 1.45C18.02 1.45 23.22 6 23.22 11.61ZM7.25 11.61C7.25 11.22 7.1 10.85 6.83 10.58C6.56 10.31 6.19 10.15 5.8 10.15C5.42 10.15 5.05 10.31 4.77 10.58C4.5 10.85 4.35 11.22 4.35 11.61C4.35 11.99 4.5 12.36 4.77 12.63C5.05 12.9 5.42 13.06 5.8 13.06C6.19 13.06 6.56 12.9 6.83 12.63C7.1 12.36 7.25 11.99 7.25 11.61ZM13.06 11.61C13.06 11.22 12.91 10.85 12.63 10.58C12.36 10.31 11.99 10.15 11.61 10.15C11.22 10.15 10.85 10.31 10.58 10.58C10.31 10.85 10.16 11.22 10.16 11.61C10.16 11.99 10.31 12.36 10.58 12.63C10.85 12.9 11.22 13.06 11.61 13.06C11.99 13.06 12.36 12.9 12.63 12.63C12.91 12.36 13.06 11.99 13.06 11.61ZM17.41 13.06C17.8 13.06 18.17 12.9 18.44 12.63C18.71 12.36 18.86 11.99 18.86 11.61C18.86 11.22 18.71 10.85 18.44 10.58C18.17 10.31 17.8 10.15 17.41 10.15C17.03 10.15 16.66 10.31 16.39 10.58C16.11 10.85 15.96 11.22 15.96 11.61C15.96 11.99 16.11 12.36 16.39 12.63C16.66 12.9 17.03 13.06 17.41 13.06Z" fill="#000000" fill-opacity="1.000000" fill-rule="nonzero"/>
		</g>
	</g>
</svg>
