<svg width="23.222168" height="23.222168" viewBox="0 0 23.2222 23.2222" fill="none" xmlns="http://www.w3.org/2000/svg" xmlns:xlink="http://www.w3.org/1999/xlink">
	<desc>
			Created with Pixso.
	</desc>
	<defs/>
	<g opacity="0.300000">
		<path id="Vector" d="M23.22 11.68C23.22 5.23 18.02 0 11.61 0C5.19 0 0 5.23 0 11.68C0 17.51 4.24 22.34 9.79 23.22L9.79 15.05L6.84 15.05L6.84 11.68L9.79 11.68L9.79 9.1C9.79 6.18 11.53 4.56 14.18 4.56C15.45 4.56 16.78 4.79 16.78 4.79L16.78 7.66L15.31 7.66C13.87 7.66 13.42 8.56 13.42 9.49L13.42 11.68L16.64 11.68L16.13 15.05L13.42 15.05L13.42 23.22C18.97 22.34 23.22 17.51 23.22 11.68Z" fill="#000000" fill-opacity="1.000000" fill-rule="nonzero"/>
	</g>
</svg>
