<svg width="22.000000" height="23.222168" viewBox="0 0 22 23.2222" fill="none" xmlns="http://www.w3.org/2000/svg" xmlns:xlink="http://www.w3.org/1999/xlink">
	<desc>
			Created with Pixso.
	</desc>
	<defs/>
	<g opacity="0.300000">
		<path id="Vector" d="M0 1.66C0 0.74 0.72 0 1.61 0L20.38 0C21.27 0 22 0.74 22 1.66L22 21.55C22 22.47 21.27 23.22 20.38 23.22L1.61 23.22C0.72 23.22 0 22.47 0 21.55L0 1.66ZM6.79 19.43L6.79 8.95L3.49 8.95L3.49 19.43L6.79 19.43ZM5.14 7.52C6.29 7.52 7.01 6.71 7.01 5.7C6.99 4.68 6.29 3.89 5.16 3.89C4.03 3.89 3.3 4.68 3.3 5.7C3.3 6.71 4.01 7.52 5.12 7.52L5.14 7.52ZM11.89 19.43L11.89 13.58C11.89 13.27 11.91 12.95 12 12.73C12.24 12.1 12.78 11.45 13.69 11.45C14.89 11.45 15.37 12.41 15.37 13.83L15.37 19.43L18.67 19.43L18.67 13.42C18.67 10.2 17.04 8.7 14.87 8.7C13.12 8.7 12.33 9.72 11.89 10.43L11.89 10.47L11.87 10.47C11.88 10.46 11.88 10.44 11.89 10.43L11.89 8.95L8.59 8.95C8.63 9.93 8.59 19.43 8.59 19.43L11.89 19.43Z" fill="#000000" fill-opacity="1.000000" fill-rule="nonzero"/>
	</g>
</svg>
