<svg width="23.222168" height="23.222168" viewBox="0 0 23.2222 23.2222" fill="none" xmlns="http://www.w3.org/2000/svg" xmlns:xlink="http://www.w3.org/1999/xlink">
	<desc>
			Created with Pixso.
	</desc>
	<defs>
		<clipPath id="clip26_12">
			<rect id="printer 1" rx="-0.611111" width="22.000000" height="22.000000" transform="translate(0.611111 0.611111)" fill="white" fill-opacity="0"/>
		</clipPath>
	</defs>
	<g opacity="0.300000">
		<rect id="printer 1" rx="-0.611111" width="22.000000" height="22.000000" transform="translate(0.611111 0.611111)" fill="#FFFFFF" fill-opacity="0"/>
		<g clip-path="url(#clip26_12)">
			<path id="Vector" d="M3.62 11.61C3.82 11.61 4 11.53 4.14 11.39C4.27 11.26 4.35 11.07 4.35 10.88C4.35 10.69 4.27 10.5 4.14 10.37C4 10.23 3.82 10.15 3.62 10.15C3.43 10.15 3.25 10.23 3.11 10.37C2.97 10.5 2.9 10.69 2.9 10.88C2.9 11.07 2.97 11.26 3.11 11.39C3.25 11.53 3.43 11.61 3.62 11.61Z" fill="#000000" fill-opacity="1.000000" fill-rule="nonzero"/>
			<path id="Vector" d="M7.25 1.45C6.48 1.45 5.74 1.75 5.2 2.3C4.66 2.84 4.35 3.58 4.35 4.35L4.35 7.25L2.9 7.25C2.13 7.25 1.39 7.56 0.85 8.1C0.3 8.65 0 9.38 0 10.15L0 14.51C0 15.28 0.3 16.02 0.85 16.56C1.39 17.11 2.13 17.41 2.9 17.41L4.35 17.41L4.35 18.86C4.35 19.63 4.66 20.37 5.2 20.92C5.74 21.46 6.48 21.77 7.25 21.77L15.96 21.77C16.73 21.77 17.47 21.46 18.01 20.92C18.56 20.37 18.86 19.63 18.86 18.86L18.86 17.41L20.31 17.41C21.08 17.41 21.82 17.11 22.37 16.56C22.91 16.02 23.22 15.28 23.22 14.51L23.22 10.15C23.22 9.38 22.91 8.65 22.37 8.1C21.82 7.56 21.08 7.25 20.31 7.25L18.86 7.25L18.86 4.35C18.86 3.58 18.56 2.84 18.01 2.3C17.47 1.75 16.73 1.45 15.96 1.45L7.25 1.45ZM5.8 4.35C5.8 3.96 5.95 3.6 6.23 3.32C6.5 3.05 6.87 2.9 7.25 2.9L15.96 2.9C16.35 2.9 16.71 3.05 16.99 3.32C17.26 3.6 17.41 3.96 17.41 4.35L17.41 7.25L5.8 7.25L5.8 4.35ZM7.25 11.61C6.48 11.61 5.74 11.91 5.2 12.46C4.66 13 4.35 13.74 4.35 14.51L4.35 15.96L2.9 15.96C2.51 15.96 2.14 15.81 1.87 15.54C1.6 15.26 1.45 14.89 1.45 14.51L1.45 10.15C1.45 9.77 1.6 9.4 1.87 9.13C2.14 8.86 2.51 8.7 2.9 8.7L20.31 8.7C20.7 8.7 21.07 8.86 21.34 9.13C21.61 9.4 21.77 9.77 21.77 10.15L21.77 14.51C21.77 14.89 21.61 15.26 21.34 15.54C21.07 15.81 20.7 15.96 20.31 15.96L18.86 15.96L18.86 14.51C18.86 13.74 18.56 13 18.01 12.46C17.47 11.91 16.73 11.61 15.96 11.61L7.25 11.61ZM17.41 14.51L17.41 18.86C17.41 19.25 17.26 19.62 16.99 19.89C16.71 20.16 16.35 20.31 15.96 20.31L7.25 20.31C6.87 20.31 6.5 20.16 6.23 19.89C5.95 19.62 5.8 19.25 5.8 18.86L5.8 14.51C5.8 14.12 5.95 13.75 6.23 13.48C6.5 13.21 6.87 13.06 7.25 13.06L15.96 13.06C16.35 13.06 16.71 13.21 16.99 13.48C17.26 13.75 17.41 14.12 17.41 14.51Z" fill="#000000" fill-opacity="1.000000" fill-rule="nonzero"/>
		</g>
	</g>
</svg>
