<svg width="59.000000" height="59.000000" viewBox="0 0 59 59" fill="none" xmlns="http://www.w3.org/2000/svg" xmlns:xlink="http://www.w3.org/1999/xlink">
	<desc>
			Created with Pixso.
	</desc>
	<defs>
		<clipPath id="clip20_107">
			<rect id="calendar3" rx="-0.500000" width="58.000000" height="58.000000" transform="translate(0.500000 0.500000)" fill="white" fill-opacity="0"/>
		</clipPath>
	</defs>
	<rect id="calendar3" rx="-0.500000" width="58.000000" height="58.000000" transform="translate(0.500000 0.500000)" fill="#FFFFFF" fill-opacity="0"/>
	<g clip-path="url(#clip20_107)">
		<path id="Vector" d="M51.62 0L7.37 0C5.41 0 3.54 0.77 2.16 2.16C0.77 3.54 0 5.41 0 7.37L0 51.62C0 53.58 0.77 55.45 2.16 56.83C3.54 58.22 5.41 59 7.37 59L51.62 59C53.58 59 55.45 58.22 56.84 56.83C58.22 55.45 59 53.58 59 51.62L59 7.37C59 5.41 58.22 3.54 56.84 2.16C55.45 0.77 53.58 0 51.62 0L51.62 0ZM3.68 14.22C3.68 12.47 5.33 11.06 7.37 11.06L51.62 11.06C53.66 11.06 55.31 12.47 55.31 14.22L55.31 52.15C55.31 53.89 53.66 55.31 51.62 55.31L7.37 55.31C5.33 55.31 3.68 53.89 3.68 52.15L3.68 14.22Z" fill="#6610F2" fill-opacity="1.000000" fill-rule="evenodd"/>
		<path id="Vector" d="M23.96 25.81C24.94 25.81 25.88 25.42 26.57 24.73C27.26 24.04 27.65 23.1 27.65 22.12C27.65 21.14 27.26 20.2 26.57 19.51C25.88 18.82 24.94 18.43 23.96 18.43C22.99 18.43 22.05 18.82 21.36 19.51C20.66 20.2 20.28 21.14 20.28 22.12C20.28 23.1 20.66 24.04 21.36 24.73C22.05 25.42 22.99 25.81 23.96 25.81ZM35.03 25.81C36 25.81 36.94 25.42 37.63 24.73C38.33 24.04 38.71 23.1 38.71 22.12C38.71 21.14 38.33 20.2 37.63 19.51C36.94 18.82 36 18.43 35.03 18.43C34.05 18.43 33.11 18.82 32.42 19.51C31.73 20.2 31.34 21.14 31.34 22.12C31.34 23.1 31.73 24.04 32.42 24.73C33.11 25.42 34.05 25.81 35.03 25.81ZM46.09 25.81C47.07 25.81 48 25.42 48.7 24.73C49.39 24.04 49.78 23.1 49.78 22.12C49.78 21.14 49.39 20.2 48.7 19.51C48 18.82 47.07 18.43 46.09 18.43C45.11 18.43 44.17 18.82 43.48 19.51C42.79 20.2 42.4 21.14 42.4 22.12C42.4 23.1 42.79 24.04 43.48 24.73C44.17 25.42 45.11 25.81 46.09 25.81ZM12.9 36.87C13.88 36.87 14.82 36.48 15.51 35.79C16.2 35.1 16.59 34.16 16.59 33.18C16.59 32.2 16.2 31.27 15.51 30.58C14.82 29.88 13.88 29.5 12.9 29.5C11.92 29.5 10.99 29.88 10.29 30.58C9.6 31.27 9.21 32.2 9.21 33.18C9.21 34.16 9.6 35.1 10.29 35.79C10.99 36.48 11.92 36.87 12.9 36.87ZM23.96 36.87C24.94 36.87 25.88 36.48 26.57 35.79C27.26 35.1 27.65 34.16 27.65 33.18C27.65 32.2 27.26 31.27 26.57 30.58C25.88 29.88 24.94 29.5 23.96 29.5C22.99 29.5 22.05 29.88 21.36 30.58C20.66 31.27 20.28 32.2 20.28 33.18C20.28 34.16 20.66 35.1 21.36 35.79C22.05 36.48 22.99 36.87 23.96 36.87ZM35.03 36.87C36 36.87 36.94 36.48 37.63 35.79C38.33 35.1 38.71 34.16 38.71 33.18C38.71 32.2 38.33 31.27 37.63 30.58C36.94 29.88 36 29.5 35.03 29.5C34.05 29.5 33.11 29.88 32.42 30.58C31.73 31.27 31.34 32.2 31.34 33.18C31.34 34.16 31.73 35.1 32.42 35.79C33.11 36.48 34.05 36.87 35.03 36.87ZM46.09 36.87C47.07 36.87 48 36.48 48.7 35.79C49.39 35.1 49.78 34.16 49.78 33.18C49.78 32.2 49.39 31.27 48.7 30.58C48 29.88 47.07 29.5 46.09 29.5C45.11 29.5 44.17 29.88 43.48 30.58C42.79 31.27 42.4 32.2 42.4 33.18C42.4 34.16 42.79 35.1 43.48 35.79C44.17 36.48 45.11 36.87 46.09 36.87ZM12.9 47.93C13.88 47.93 14.82 47.54 15.51 46.85C16.2 46.16 16.59 45.22 16.59 44.25C16.59 43.27 16.2 42.33 15.51 41.64C14.82 40.95 13.88 40.56 12.9 40.56C11.92 40.56 10.99 40.95 10.29 41.64C9.6 42.33 9.21 43.27 9.21 44.25C9.21 45.22 9.6 46.16 10.29 46.85C10.99 47.54 11.92 47.93 12.9 47.93ZM23.96 47.93C24.94 47.93 25.88 47.54 26.57 46.85C27.26 46.16 27.65 45.22 27.65 44.25C27.65 43.27 27.26 42.33 26.57 41.64C25.88 40.95 24.94 40.56 23.96 40.56C22.99 40.56 22.05 40.95 21.36 41.64C20.66 42.33 20.28 43.27 20.28 44.25C20.28 45.22 20.66 46.16 21.36 46.85C22.05 47.54 22.99 47.93 23.96 47.93ZM35.03 47.93C36 47.93 36.94 47.54 37.63 46.85C38.33 46.16 38.71 45.22 38.71 44.25C38.71 43.27 38.33 42.33 37.63 41.64C36.94 40.95 36 40.56 35.03 40.56C34.05 40.56 33.11 40.95 32.42 41.64C31.73 42.33 31.34 43.27 31.34 44.25C31.34 45.22 31.73 46.16 32.42 46.85C33.11 47.54 34.05 47.93 35.03 47.93Z" fill="#6610F2" fill-opacity="1.000000" fill-rule="evenodd"/>
	</g>
</svg>
