<svg width="23.222168" height="18.333374" viewBox="0 0 23.2222 18.3334" fill="none" xmlns="http://www.w3.org/2000/svg" xmlns:xlink="http://www.w3.org/1999/xlink">
	<desc>
			Created with Pixso.
	</desc>
	<defs/>
	<g opacity="0.300000">
		<path id="Vector" d="M7.29 18.33C16.05 18.33 20.85 11.27 20.85 5.17C20.85 4.97 20.85 4.77 20.84 4.57C21.77 3.91 22.58 3.1 23.22 2.17C22.35 2.54 21.42 2.79 20.48 2.9C21.47 2.32 22.22 1.41 22.58 0.34C21.64 0.88 20.61 1.26 19.55 1.46C18.83 0.71 17.88 0.22 16.84 0.06C15.81 -0.11 14.75 0.06 13.82 0.54C12.89 1.02 12.16 1.79 11.73 2.72C11.29 3.64 11.19 4.69 11.42 5.68C9.53 5.59 7.68 5.11 5.98 4.28C4.29 3.44 2.8 2.27 1.6 0.84C1 1.86 0.81 3.07 1.08 4.22C1.36 5.36 2.07 6.37 3.08 7.02C2.33 7 1.59 6.8 0.92 6.45L0.92 6.51C0.93 7.58 1.31 8.61 2 9.44C2.7 10.27 3.67 10.84 4.74 11.05C4.34 11.16 3.91 11.21 3.49 11.21C3.19 11.21 2.89 11.19 2.6 11.13C2.9 12.05 3.49 12.85 4.29 13.43C5.09 14.01 6.05 14.32 7.05 14.34C5.36 15.63 3.27 16.33 1.13 16.33C0.75 16.33 0.37 16.31 0 16.26C2.17 17.61 4.71 18.33 7.29 18.33Z" fill="#000000" fill-opacity="1.000000" fill-rule="nonzero"/>
	</g>
</svg>
